<svg id="b3df94e8-6e7b-4c4d-9a34-e8a0c8ee8ff9" data-name="Layer 1" xmlns="http://www.w3.org/2000/svg" viewBox="0 0 36 36"><title>Dealer</title><path d="M18.64,32.08a2.18,2.18,0,0,1-1.3-.43L4.63,19.11a1.74,1.74,0,0,1-2-.31L1,17.14a1.68,1.68,0,0,1,0-2.4L11.21,4.53a1.68,1.68,0,0,1,2.4,0l1.66,1.66a1.68,1.68,0,0,1,.13,2.25L18.83,12l3.48-3.56a1.68,1.68,0,0,1,.08-2.31l1.66-1.66a1.74,1.74,0,0,1,2.4,0L35,13a1.69,1.69,0,0,1,0,2.4L33.34,17a1.69,1.69,0,0,1-1.78.39l-4.11,4,0,0A2.16,2.16,0,0,1,28.11,23a2.2,2.2,0,0,1-2.19,2.19,2,2,0,0,1-.35,0c0,.05,0,.1,0,.16a2.22,2.22,0,0,1-2.43,2.17v0a2.21,2.21,0,0,1-2.32,2.19v.13A2.19,2.19,0,0,1,18.64,32.08ZM5.4,18.46,18,30.89a1.2,1.2,0,0,0,1.83-1,1.1,1.1,0,0,0-.21-.66L16,25.61l.71-.72,3.74,3.73a1.14,1.14,0,0,0,.54.14A1.18,1.18,0,0,0,22,27.08s-3.76-3.8-3.76-3.8l.72-.7,3.64,3.7a.82.82,0,0,0,.17.11,1.14,1.14,0,0,0,.58.15,1.19,1.19,0,0,0,.91-1.94l-3.5-3.86.74-.68,3.56,3.83a1.15,1.15,0,0,0,.82.33,1.19,1.19,0,0,0,.84-2l-5.61-6.34-3.29,3.3a2.29,2.29,0,0,1-1.75.9,2.19,2.19,0,0,1-2.19-2.19,2.32,2.32,0,0,1,.29-1.18l3.91-4L14.7,9.16Zm15.77-3.83h0a.46.46,0,0,1,.36.17l5.23,5.92,4-3.9L23,9.1l-7.73,8a1.41,1.41,0,0,0-.35.82,1.19,1.19,0,0,0,1.18,1.19c.41,0,.57-.15,1-.61l3.68-3.68A.5.5,0,0,1,21.17,14.63ZM12.41,5a.68.68,0,0,0-.49.21L1.71,15.45a.69.69,0,0,0,0,1l1.66,1.66a.71.71,0,0,0,1,0L14.56,7.87a.69.69,0,0,0,0-1L12.9,5.24A.68.68,0,0,0,12.41,5Zm12.84-.1a.67.67,0,0,0-.49.2L23.1,6.79a.68.68,0,0,0-.2.49.7.7,0,0,0,.2.49h0l8.55,8.55a.69.69,0,0,0,1,0l1.66-1.66a.7.7,0,0,0,.2-.49.68.68,0,0,0-.2-.49L25.74,5.13A.66.66,0,0,0,25.25,4.93Z" fill="#6f6f70"/></svg>