<?xml version="1.0" encoding="UTF-8"?>
<svg id="uuid-92a1b999-50e7-4af1-946d-d675b164df1e" data-name="Layer 1" xmlns="http://www.w3.org/2000/svg" viewBox="0 0 48 48">
  <path d="M32.4,31.18c.21-1.29.74-2.36,1.58-3.34.87-1.02.93-1.67.16-2.76-.7-1-1.04-2.05-1.1-3.26-.08-1.43-.49-1.91-1.88-2.16-1.23-.23-2.27-.73-3.22-1.54-1.05-.89-1.67-.95-2.76-.18-1.02.71-2.09,1.05-3.32,1.12-1.38.08-1.87.5-2.12,1.85-.23,1.23-.71,2.27-1.53,3.22-.93,1.08-.96,1.71-.15,2.86.68.96,1.02,1.97,1.06,3.14.02.53,0,1.21.37,1.62.42.53.93.51,1.39.57,1.31.19,2.4.75,3.39,1.62.97.84,1.59.9,2.65.17,1.08-.74,2.21-1.1,3.5-1.17,1.24-.06,1.79-.55,1.98-1.76ZM24.87,22.06c.48-.42,1.21-.38,1.64.1s.38,1.21-.1,1.64-1.21.38-1.64-.1-.38-1.21.1-1.64ZM21.84,26.49c-.15,0-.28-.07-.37-.17-.08-.09-.12-.2-.12-.33,0-.27.23-.49.5-.49l8.39.07c.27,0,.49.23.49.5,0,.27-.23.49-.5.49l-8.39-.07ZM25.83,29.7c-.42-.48-.38-1.21.1-1.64s1.21-.38,1.64.1.38,1.21-.1,1.64-1.21.38-1.64-.1Z" fill="#5bc9a5"/>
  <path d="M20.19,46.5h-.02c-.92,0-1.77-.37-2.41-1.02l-11.21-11.47c-1.3-1.33-1.29-3.47.03-4.79L26.13,9.66c.41-.41,1.02-.54,1.55-.34l4.69,1.76c-.57-2.66-.56-5.49.24-7.36.61-1.42,1.61-2.19,2.89-2.22.93-.04,2.21.41,2.88,2.65.78,2.61.41,7.25-.57,8.98.41.16.72.48.86.89l3.66,10.56c.18.53.05,1.12-.35,1.52l-19.41,19.41c-.64.64-1.5,1-2.4,1ZM7.28,29.93c-.93.93-.93,2.44-.02,3.38l11.21,11.47c.45.46,1.06.72,1.7.72.62.04,1.25-.25,1.71-.7l19.41-19.41c.12-.12.17-.31.11-.48l-3.66-10.56c-.04-.13-.15-.24-.28-.29l-.61-.23c-.16-.06-.29-.12-.46-.17l-2.53-.95c.29.85.64,1.64,1.05,2.31.02,0,.03,0,.05,0,1.1,0,2,.89,2,1.99s-.89,2-2,2-1.99-.89-1.99-2c0-.72.38-1.35.96-1.7-.51-.89-.93-1.94-1.25-3.04l-5.34-2c-.17-.06-.36-.02-.49.11L7.28,29.93ZM34.4,16.19c-.3.17-.44.45-.44.82,0,.55.45,1,.99,1s1-.45,1-1c0-.33-.17-.63-.42-.81,0,0-.4.45-.6.44-.24-.01-.43-.23-.53-.45ZM33.5,11.51l3.38,1.27c.64-.77,1.45-5.5.52-8.43-.39-1.25-1.04-1.89-1.86-1.85-.88.02-1.55.57-2,1.62-.78,1.83-.71,4.76-.04,7.39Z" fill="#7e9ba3"/>
  <path d="M12.34,33.66c-.13,0-.26-.05-.35-.15l-2.86-2.86c-.2-.2-.2-.51,0-.71s.51-.2.71,0l2.86,2.86c.2.2.2.51,0,.71-.1.1-.23.15-.35.15ZM13.17,30.67c-.13,0-.26-.05-.35-.15l-1.83-1.83c-.2-.2-.2-.51,0-.71s.51-.2.71,0l1.83,1.83c.2.2.2.51,0,.71-.1.1-.23.15-.35.15Z" fill="#7e9ba3"/>
</svg>