<?xml version="1.0" encoding="UTF-8"?>
<svg id="uuid-d65abf30-f2d9-4a30-844e-cc72316ba57d" data-name="Layer 1" xmlns="http://www.w3.org/2000/svg" viewBox="0 0 80 45">
  <polygon points="31.02 16.32 48.51 16.32 49.33 24.33 30.47 24.62 31.02 16.32" fill="#5bc9a5"/>
  <path d="M46.48,16.32c4-3.75-2.59-8.32-6.92-10.65-3.85,1.74-10.53,6.9-7.05,10.62" fill="#5bc9a5" fill-rule="evenodd"/>
  <path d="M66.62,44.33H13.06c-.33,0-.6-.27-.6-.6s.27-.6.6-.6h4.04v-18.8c0-.33.27-.6.6-.6h.27v-2.06c0-.1.03-.21.08-.3l1.39-2.44c-1.29-2.01.44-3.56,1.73-4.72.4-.36.77-.69,1.08-1.04.11-.12.26-.19.43-.2.16-.02.32.06.44.17.29.28.64.57,1.02.87,1.18.96,2.52,2.05,2.57,3.42.02.58-.19,1.13-.64,1.66l1.44,2.4c.06.09.09.2.09.31v1.93h2.08v-2.64c0-.2.1-.38.25-.49l.13-1.08c.01-.1.05-.19.1-.27l.53-.77v-.4l-.46-.44c-.09-.09-.15-.2-.17-.33l-.17-.93c-.03-.17.02-.35.13-.49.11-.14.28-.22.46-.22h.78c-.4-.78-.51-1.63-.33-2.54.69-3.43,5.45-6.75,8.29-8.03.17-.08.37-.07.53.02,2.96,1.59,8,4.77,8.44,8.16.11.85-.06,1.65-.52,2.39h1.24c.16,0,.32.07.43.18.11.12.17.27.17.44l-.03.93c0,.15-.07.3-.18.41l-.43.43.03.63.48.63c.08.1.12.23.12.36v.83c.24.08.42.3.42.57v2.64h2.2v-2.06c0-.1.03-.21.08-.3l1.39-2.44c-1.29-2.01.44-3.56,1.73-4.72.4-.36.77-.69,1.08-1.04.11-.12.26-.19.43-.2.16-.01.32.06.44.17.29.28.64.57,1.01.87,1.18.96,2.52,2.05,2.57,3.42.02.58-.19,1.13-.64,1.66l1.44,2.4c.06.09.09.2.09.31v1.93h.24c.33,0,.6.27.6.6v18.8h4.04c.33,0,.6.27.6.6s-.27.6-.6.6ZM18.3,43.13h43.09v-18.2h-6.76l2.69,1.89c.21.15.33.4.33.67,0,.22-.09.44-.24.59-.11.11-.33.21-.49.21h0l-34.15-.17c-.32,0-.6-.23-.69-.56-.1-.36.03-.73.32-.92l2.62-1.71h-6.7v18.2ZM56.61,27.8h0,0ZM23.03,27.64h0,0ZM24.13,26.93l31.46.16-3.05-2.15h-25.39s-.07.07-.12.1l-2.9,1.9ZM22.75,26.92h0,0ZM53.33,23.73h7.21v-1.76l-1.41-2.35h-4.54l-1.26,2.22v1.9ZM30.86,23.73h17.87v-2.04h-7.7c-.33,0-.6-.27-.6-.6,0-1.48-.48-1.48-.64-1.48s-.65,0-.7,1.5c0,.32-.27.58-.6.58h-7.64v2.04ZM19.17,23.73h7.21v-1.76l-1.41-2.35h-4.54l-1.26,2.22v1.9ZM41.6,20.49h6.71v-.6l-.47-.61c-.07-.1-.12-.21-.12-.33l-.06-1.08c0-.17.06-.34.18-.46l.45-.52h-1.74c-.11.03-.23.03-.34,0h-4.61c-.11.03-.23.03-.34,0h-10.07v.03s.51.48.51.48c.12.11.18.27.18.43v.84c0,.12-.04.24-.11.34l-.56.8-.08.67h6.81c.23-1.8,1.24-2.08,1.85-2.08s1.63.29,1.81,2.08ZM54.69,18.41h4.53c.3-.33.45-.63.44-.94-.03-.83-1.14-1.73-2.13-2.53-.22-.18-.44-.36-.65-.54-.24.24-.5.47-.75.69-1.62,1.45-2.24,2.21-1.44,3.31ZM20.53,18.41h4.53c.3-.33.45-.63.44-.94-.03-.83-1.14-1.73-2.13-2.53-.22-.18-.44-.36-.65-.54-.24.24-.5.47-.75.7-1.62,1.45-2.24,2.21-1.44,3.31ZM42.4,15.69h3.76c.67-.7.94-1.43.84-2.24-.27-2.05-3.02-4.63-7.56-7.11-2.81,1.34-6.79,4.31-7.34,7.05-.17.86.02,1.61.58,2.3h3.83c-.14-.49-.14-.93,0-1.33.13-.38.39-.7.74-.92.27-.9.94-1.67,2-2.3.19-.11.44-.11.63.01.96.61,1.63,1.39,2,2.32.35.11.54.33.63.48.24.41.21.96-.1,1.74ZM37.78,15.69h3.3c.32-.64.38-.95.38-1.08-.01,0-.02,0-.03,0-.26,0-.5-.17-.57-.43-.22-.71-.65-1.3-1.32-1.8-.68.46-1.07.98-1.18,1.58-.04.19-.17.36-.35.44-.19.08-.31.2-.36.35-.08.22-.02.55.15.94ZM48.75,39.27c-.33,0-.6-.27-.6-.6v-6.75c0-.33.27-.6.6-.6s.6.27.6.6v6.75c0,.33-.27.6-.6.6ZM39.26,39.27c-.33,0-.6-.27-.6-.6v-6.75c0-.33.27-.6.6-.6s.6.27.6.6v6.75c0,.33-.27.6-.6.6ZM30.51,39.27c-.33,0-.6-.27-.6-.6v-6.75c0-.33.27-.6.6-.6s.6.27.6.6v6.75c0,.33-.27.6-.6.6ZM58.02,38.01h-2.43c-.33,0-.6-.27-.6-.59l-.03-2.84s-.02-.01-.03-.02h-.95c-.25,0-.47-.15-.56-.38-.09-.23-.04-.49.14-.66l1.18-1.14c.11-.11.26-.17.42-.17h3.53c.19,0,.38.09.49.25l.81,1.14c.13.18.15.42.04.62-.1.2-.31.32-.53.32h-.89v2.86c0,.33-.27.6-.6.6ZM56.19,36.81h1.23v-2.17h-1.25l.02,2.17ZM55.86,33.43h1.85s.02-.01.03-.02h-1.92s.02.01.03.02ZM23.86,38.01h-2.43c-.33,0-.6-.27-.6-.59l-.03-2.84s-.02-.01-.03-.02h-.95c-.25,0-.47-.15-.56-.38-.09-.23-.04-.49.14-.66l1.18-1.14c.11-.11.26-.17.42-.17h3.53c.19,0,.38.09.49.25l.81,1.14c.13.18.15.42.04.62-.1.2-.31.32-.53.32h-.89v2.86c0,.33-.27.6-.6.6ZM22.02,36.81h1.23v-2.17h-1.25l.02,2.17ZM21.7,33.43h1.85s.02-.01.03-.02h-1.92s.02.01.03.02ZM56.91,12.63h0c-.33,0-.6-.27-.6-.6v-1.61c.01-.33.28-.6.61-.6h0c.33,0,.6.27.6.6v1.61c-.01.33-.28.6-.61.6ZM22.75,12.63h0c-.33,0-.6-.27-.6-.6v-1.61c.01-.33.28-.6.61-.6h0c.33,0,.6.27.6.6v1.61c-.01.33-.28.6-.61.6ZM39.63,4.26c-.33,0-.6-.27-.6-.6V1.57c0-.33.27-.6.6-.6s.6.27.6.6v2.1c0,.33-.27.6-.6.6Z" fill="#7e9ba3"/>
</svg>